<?xml version="1.0" encoding="utf-8"?>
<!-- Generator: Adobe Illustrator 27.2.0, SVG Export Plug-In . SVG Version: 6.00 Build 0)  -->
<svg version="1.1" id="Ebene_1" xmlns="http://www.w3.org/2000/svg" xmlns:xlink="http://www.w3.org/1999/xlink" x="0px" y="0px"
	 viewBox="0 0 582.6 180.3" style="enable-background:new 0 0 582.6 180.3;" xml:space="preserve">
<path d="M87.4,6.6C42.5,6.6,5.9,43.2,5.9,88.1c0,28.5,14.6,53.5,36.7,68.1v-47.7h-8.2v32.6c-3.9-4.8-8.1-10.8-11.5-16.6
	c-6.2-10.8-9.4-22.6-9.4-36.3c0-41.2,33.1-74.6,73.9-74.6c40.8,0,73.9,33.4,73.9,74.6c0,13.7-3.4,25.5-9.6,36.5
	c-3.3,5.7-7.5,11.6-11.5,16.5v-32.6h-8.1v47.7c22.1-14.6,36.7-39.6,36.7-68.1C168.9,43.1,132.3,6.6,87.4,6.6L87.4,6.6z M337.2,10.9
	l-10.8,2.2v2.9l4.8,1v52.3l-5,1v3.4h17.3v-3.6l-4.1-0.9V41.8c2.4-2.1,4.8-3.8,8.1-3.8c4.8,0,4.8,5,4.8,8.4v23.2l-4.1,0.9v3.4h17.2
	v-3.6l-4.5-0.9V42.5c0-6.2-3.4-10.6-10.3-10.6c-4.6,0-8.1,2.6-11.1,5V10.9L337.2,10.9L337.2,10.9z M411.2,10.9
	c-2.9,0-5.5,2.4-5.5,5.5c0,3.1,2.6,5.5,5.7,5.5c2.9,0,5.5-2.4,5.5-5.5C416.8,13.3,414.2,10.9,411.2,10.9L411.2,10.9z M221.2,14.3
	c-3.8,0-7.4,0.5-11.2,0.5h-10.5v3.6l5.8,1v49.9l-5.8,1v3.4h9.9c2.1,0,11.3,0.2,13.2,0.2c4.8,0,12.9,0.2,17.5-7.7
	c1.2-2.2,2.1-5,1.9-8.2c0-4.1-1.4-7.9-4.3-11c-2.7-2.9-5.8-3.9-9.3-4.6c4.3-1.9,10.3-5.8,10.3-14.1c0-3.3-1.4-6.9-3.6-9.4
	C230.9,14.3,224.4,14.3,221.2,14.3L221.2,14.3z M219.6,18.1c3.1,0,9.3,1.4,9.3,11.3c0,11.2-6.7,11.5-10.6,11.5H214V19.1
	C216,18.5,217.2,18.1,219.6,18.1L219.6,18.1z M87.4,24.3L62.5,43.7l4.5,5.8l20.4-15.8l20.4,15.8l4.4-5.8L87.4,24.3L87.4,24.3z
	 M266.6,31c-12,0-17,12.3-17,22.5c0,13.4,7.2,21.3,16.5,21.3c9.1,0,17.3-7.7,17.3-22.3C283.4,33.7,271.6,31,266.6,31L266.6,31z
	 M306.2,31.1c-12.4,0-15.6,13.2-15.6,22.8c0,12.4,5.3,20.8,15.4,20.8c7.9,0,11.3-3.3,14.8-9.9l-3.8-1.6c-1.7,2.7-4.1,5.5-7.7,5.5
	c-8.4,0-9.8-9.6-10.1-16.5H321C320.8,42.1,318.9,31.1,306.2,31.1L306.2,31.1z M488.8,31.1c-8.2,0-14.7,5.7-14.7,14.2
	c0,7.2,4.3,10.1,7,11.8c-4.5,2.7-7.9,5.7-7.9,8.9c0,2.9,2.1,4.6,4.8,5.5c-2.9,2.1-6.5,4.6-6.5,8.9c0,6.3,7.9,8.7,15.1,8.7
	c13.2,0,20.6-6.5,20.6-14.4c0-7.5-4.5-10.1-11.8-10.3l-11-0.4c-0.7,0-2.9-0.5-2.9-1.9c0-1,1.5-2.4,3.1-3.6c1.5,0.3,3.4,0.7,5,0.7
	c6,0,14.2-4.3,14.2-13.9c0-3.4-1.2-5.7-3.1-8.4l6.9,0.2v-5.1l-9.8,0.3C494.8,32.5,491.9,31.1,488.8,31.1L488.8,31.1z M528.8,31.1
	c-12.3,0-15.6,13.2-15.6,22.8c0,12.4,5.3,20.8,15.4,20.8c7.9,0,11.3-3.3,14.7-9.9l-3.8-1.6c-1.7,2.7-4.1,5.5-7.7,5.5
	c-8.4,0-9.8-9.6-10.1-16.5h21.8C543.4,42.1,541.5,31.1,528.8,31.1L528.8,31.1z M438.2,31.5l-10.6,2.8v3.4l5,0.5v31.2l-5,1v3.4h17.7
	v-3.6l-4.3-0.9v-28c2.2-2.1,4.8-3.9,7.9-3.9c4.8,0,4.8,5,4.8,7v25l-4.5,0.9v3.4h17.3v-3.6l-4.5-0.9V42.5c0-6.7-3.4-10.8-10.4-10.8
	c-4.5,0-7.9,2.4-11,5v-5.2L438.2,31.5z M561.9,31.5l-10.5,2.7V37l5,0.9v31.6l-5,1v3.4h19v-3.6l-6-0.9V46.9c0-1.4,1.9-5.7,5.3-7.2
	l4.5,2.4c1.4-1.2,3.3-2.6,3.3-5.2c0-3.4-2.2-5-5-5c-3.6,0-5.5,2.8-8.2,7.4v-7.9L561.9,31.5L561.9,31.5z M382.4,31.5l-10.5,2.7V37
	l5,0.9v31.6l-5,1v3.4h19v-3.6l-6-0.9V46.9c0-1.4,2.1-5.7,5.5-7.2l4.5,2.4c1.2-1.2,3.3-2.6,3.1-5.1c0-3.4-2.2-5-4.8-5
	c-3.6,0-5.7,2.8-8.4,7.4v-7.9L382.4,31.5L382.4,31.5z M414.1,31.8l-10.8,2.7v2.9l4.5,1v30.9l-4.5,1v3.4H421v-3.6l-4.8-0.9V31.8
	L414.1,31.8L414.1,31.8z M488.7,34.9c5.5,0,6,6.2,6,10.8c0,4.3-0.7,9.6-5.7,9.6c-5.3,0-6-5.7-6-10.3C483,40.8,483.3,34.9,488.7,34.9
	L488.7,34.9z M266.8,35.1c6.2,0,7.4,10.1,7.4,17.1c0,5.5-0.7,18.2-8.1,18.2c-4.8,0-7.4-6.7-7.4-16.8
	C258.7,48.8,259.1,35.1,266.8,35.1L266.8,35.1z M306.4,35.3c5.1,0,5.7,7.7,5.8,12.9h-13C299.7,43,300.9,35.3,306.4,35.3L306.4,35.3z
	 M529,35.3c5.1,0,5.7,7.7,5.8,12.9h-13C522.3,43,523.5,35.3,529,35.3L529,35.3z M214,45h3.8c5.8,0,14.6,0.9,14.6,12.5
	c0,4.5-1.5,8.8-5.3,10.8c-2.2,1.4-5.1,2.1-7.6,2.1c-2.2,0-3.9-0.3-5.5-1.4L214,45L214,45z M83.3,55.5v113.9c1.4,0,2.7,0.2,4.1,0.2
	c1.4,0,2.7-0.2,3.9-0.2V55.5L83.3,55.5L83.3,55.5z M67,55.5V167c2.9,0.9,5.3,1.4,8.1,1.7V55.5L67,55.5L67,55.5z M99.6,55.5v113.4
	c2.7-0.5,5.7-1.2,8.1-1.9V55.5L99.6,55.5L99.6,55.5z M482.8,72.3c8.7,0.5,12.3,1,15.3,1.5c1.7,0.3,2.9,1.2,2.9,4.1
	c0,3.8-5.5,6.7-12.5,6.7c-5.1,0-8.9-2.1-8.9-5.8C479.6,75.6,481.3,73.9,482.8,72.3L482.8,72.3z M358.7,98.4l-10.8,2.4v2.9l4.8,0.5
	V157l-5,1v3.4h17.7v-3.6l-4.5-1V98.4L358.7,98.4L358.7,98.4z M382.9,98.4l-10.8,2.4v2.9l4.8,0.9V157l-5,1v3.4h17.5v-3.6l-4.3-1
	v-27.4c2.4-2.1,4.8-3.9,8.1-3.9c5,0,4.8,5,4.8,8.4v23.3l-4.1,0.9v3.4H411v-3.6l-4.5-1v-26.9c0-6.2-3.4-10.5-10.1-10.5
	c-4.6,0-8.2,2.4-11.3,5V98.4L382.9,98.4L382.9,98.4z M463.6,98.4c-2.9,0-5.7,2.6-5.7,5.7c0,2.9,2.6,5.5,5.7,5.5
	c2.9,0,5.3-2.6,5.3-5.7C468.9,100.9,466.7,98.4,463.6,98.4L463.6,98.4z M199.9,102.3v3.8l5.5,0.9V157l-5.5,1v3.4h19.5v-3.6l-5-1
	v-49.9l5.1-1v-3.6L199.9,102.3L199.9,102.3z M50.7,108.5v52.3c2.6,1.4,5.3,2.6,8.1,3.6v-55.9L50.7,108.5L50.7,108.5z M115.9,108.5
	v56.1c2.7-1.2,5.5-2.4,8.2-3.8v-52.3L115.9,108.5L115.9,108.5z M287,118.8c-6.4,0-11.8,3.5-13.8,9h0c-0.6,1.6-0.9,3.3-0.9,5.2
	c0,7.2,4.3,9.9,7,11.6c-4.4,2.7-7.7,5.8-7.7,9.1c0,2.7,1.9,4.5,4.8,5.5c-3.1,1.9-6.7,4.6-6.7,8.9c0,6.4,7.9,8.7,15.1,8.7
	c13.2,0,20.6-6.5,20.6-14.6c0-7.4-4.5-9.8-11.8-10.1l-11-0.5c-0.7,0-2.9-0.3-2.9-1.7c0-1.2,1.5-2.6,3.3-3.8c1.5,0.5,3.3,0.7,4.8,0.7
	c6,0,14.2-4.1,14.2-13.9c0-2-0.5-3.6-1.2-5.2c-0.5-1-1.1-2-1.9-3l7,0.2v-5.2l-9.9,0.3C293,120.1,290.1,118.8,287,118.8L287,118.8z
	 M327,118.8c-12.3,0-15.6,13.2-15.6,22.8c0,12.4,5.3,20.7,15.4,20.7c7.9,0,11.3-3.3,14.8-9.9l-3.8-1.6c-1.7,2.7-4.1,5.5-7.7,5.5
	c-8.4,0-9.8-9.6-10.1-16.5h21.8C341.5,129.8,339.6,118.8,327,118.8L327,118.8z M433.1,118.8c-12.3,0-15.6,13.2-15.6,22.8
	c0,12.4,5.3,20.7,15.4,20.7c7.9,0,11.3-3.3,14.8-9.9l-3.8-1.6c-1.7,2.7-4.1,5.5-7.7,5.5c-8.4,0-9.8-9.6-10.1-16.5h21.8
	C447.7,129.8,445.8,118.8,433.1,118.8L433.1,118.8z M490.7,119l-10.8,2.7v2.9l5,0.9V157l-5,1v3.4h17.3v-3.6l-3.9-1v-27.6
	c2.1-1.9,4.3-3.9,8-3.9c4.3,0,5.3,3.9,5.3,7.2V157l-4.8,1v3.4H519v-3.6l-4.1-1v-27.4c2.4-2.2,4.6-4.1,8.1-4.1c4.6,0,5,4.8,5,7V157
	l-4.5,1v3.4h17.8v-3.6l-4.8-1v-27.1h0c0-6.9-4.3-10.3-10.8-10.3c-4.8,0-8.4,2.4-11.7,5.7c-1.7-3.6-5.5-5.5-9.6-5.5s-8.1,1.9-11.5,5
	V119L490.7,119L490.7,119z M236.6,119l-10.6,2.7v3.4l5,0.7V157l-5,1v3.4h17.7v-3.6l-4.5-1v-27.9c0.4-0.4,0.9-0.7,1.3-1.1
	c2-1.5,4.2-2.7,6.7-2.7c2.4,0,3.6,1.2,4.2,2.7c0.6,1.5,0.6,3.2,0.6,4.3v25l-4.5,0.9v3.4h17.3v-3.6l-4.5-1v-26.9c0-0.7,0-1.4-0.1-2.1
	c-0.7-5.3-4.1-8.7-10.3-8.7c-4.4,0-7.9,2.6-11,5V119L236.6,119L236.6,119z M466.4,119.5l-10.8,2.7v2.8l4.5,1v31l-4.5,1v3.4H473v-3.6
	l-4.6-1v-37.4L466.4,119.5L466.4,119.5z M286.8,122.4c3.4,0,5,2.5,5.7,5.4h0c0.4,1.8,0.5,3.8,0.5,5.5c0,4.1-0.7,9.6-5.8,9.6
	c-5.3,0-5.8-5.8-5.8-10.3c0-1.5,0-3.3,0.3-4.9h0C282.2,124.9,283.5,122.4,286.8,122.4L286.8,122.4z M327.1,122.9
	c5.1,0,5.7,7.7,5.8,12.9h-13C320.4,130.6,321.6,122.9,327.1,122.9L327.1,122.9z M433.3,122.9c5.2,0,5.7,7.7,5.8,12.9h-13
	C426.6,130.6,427.8,122.9,433.3,122.9L433.3,122.9z M281,159.9c8.7,0.5,12.4,0.9,15.3,1.5c1.7,0.3,3.1,1.2,3.1,4.1
	c0,3.8-5.5,6.7-12.5,6.7c-5.1,0-8.9-2.2-8.9-5.8C277.9,163.2,279.5,161.3,281,159.9L281,159.9z"/>
</svg>
