<?xml version="1.0" encoding="utf-8"?>
<!-- Generator: Adobe Illustrator 27.2.0, SVG Export Plug-In . SVG Version: 6.00 Build 0)  -->
<svg version="1.1" id="Ebene_1" xmlns="http://www.w3.org/2000/svg" xmlns:xlink="http://www.w3.org/1999/xlink" x="0px" y="0px"
	 viewBox="0 0 580.6 171.6" style="enable-background:new 0 0 580.6 171.6;" xml:space="preserve">
<path d="M562.9,130.6h16.3v-17.6h-14c-8.6,0-13-4.4-13-13v-51h28.4V32.8h-28.4V0h-19.4l0.2,98.7C533,119.6,543.2,130.6,562.9,130.6z
	"/>
<path d="M197.3,30.7c-15.3,0-26.5,8.1-31.8,17.8c-5.2-9.8-16.5-17.8-31.8-17.8c-22.3,0-37.2,14.4-39.8,35.6
	c-5.8-20.5-22.9-35.6-44.7-35.6C20.7,30.7,0,51.4,0,81.7s20.3,51,49.3,51c21.1,0,38.5-12.3,44.3-31.3H74
	c-4.4,9.2-12.5,13.8-24.7,13.8c-15,0-26.8-10-29.5-25.9h73.8v41.4h19.2V74.2c0-16.1,7.3-25.5,21.5-25.5s21.5,9.4,21.5,25.9v56h19.2
	v-56c0-16.5,7.3-25.9,21.5-25.9s21.5,9.4,21.5,25.5v56.4h19.2V72.7C237.4,48.7,222.4,30.7,197.3,30.7L197.3,30.7z M20.1,73.4
	c3.1-15.3,14.2-25.1,29.3-25.1s25.5,11.5,27,25.1H20.1z"/>
<path d="M241.6,171.6h19.2v-54.8c6.9,10.2,19,15.9,33,15.9c23.4,0,41.2-15.7,45.8-38.5c4.8,22.8,22.4,38.5,46.2,38.5
	c14.4,0,28-7.1,33.4-17.1v15.1h18.6V94.3c4.8,20.7,21.7,38.5,48.7,38.5c23.6,0,41.6-14.8,46.4-35.5h-19.9c-5,11.1-14.2,18-26.5,18
	c-28.6,0-23.6-28-48.7-28s-20.9,28-48.9,28s-23.6-28-49.3-28s-19.2,28-48.5,28c-17.6,0-30.9-14-30.9-33.4s13-33.4,30.9-33.4
	c29.3,0,23.2,28,48.5,28s19.9-28,49.3-28s23.8,28,48.9,28s20.1-28,48.7-28c12.5,0,21.7,6.9,26.5,18H533
	c-4.8-20.7-22.8-35.5-46.4-35.5c-24.9,0-43.9,15.7-48.7,38.5c-4.6-22.8-24.5-38.5-48.1-38.5c-27.6,0-45.4,15.7-50.2,38.5
	c-4.6-22.8-22.6-38.5-48.1-38.5s-49.9,16.3-49.9,51V171.6L241.6,171.6z"/>
</svg>
