<?xml version="1.0" encoding="utf-8"?>
<!-- Generator: Adobe Illustrator 27.2.0, SVG Export Plug-In . SVG Version: 6.00 Build 0)  -->
<svg version="1.1"
	 id="svg2" xmlns:cc="http://creativecommons.org/ns#" xmlns:rdf="http://www.w3.org/1999/02/22-rdf-syntax-ns#" xmlns:dc="http://purl.org/dc/elements/1.1/" xmlns:svg="http://www.w3.org/2000/svg" xmlns:sodipodi="http://sodipodi.sourceforge.net/DTD/sodipodi-0.dtd" sodipodi:docname="trustyou-logo.ai"
	 xmlns="http://www.w3.org/2000/svg" xmlns:xlink="http://www.w3.org/1999/xlink" x="0px" y="0px" viewBox="0 0 961.1 104.2"
	 style="enable-background:new 0 0 961.1 104.2;" xml:space="preserve">
<sodipodi:namedview  bordercolor="#666666" borderopacity="1" fit-margin-bottom="50" fit-margin-left="50" fit-margin-right="50" fit-margin-top="50" gridtolerance="10" guidetolerance="10" id="namedview4" objecttolerance="10" pagecolor="#ffffff" showgrid="false">
	</sodipodi:namedview>
<g>
	<g id="g12" transform="matrix(2.1882746,0,0,2.1882746,-424.48991,-160.03331)">
		<g id="g14">
			<g id="g20">
				<g id="g22">
					<path id="path30" d="M441.1,102.8v17h-11.9v-17l-16.6-28.6h13.5l9.1,18.5l9.1-18.5h13.5L441.1,102.8L441.1,102.8z"/>
				</g>
			</g>
		</g>
	</g>
	<g id="g34" transform="matrix(2.1882746,0,0,2.1882746,-424.48991,-160.03331)">
		<g id="g40">
			<g id="g42">
				<path id="path50" d="M456.5,97c0,13.2,8.2,23.8,22.5,23.8l0,0c14.3,0,22.5-10.5,22.5-23.8l0,0c0-13.2-8.2-23.8-22.5-23.8l0,0
					C464.6,73.2,456.5,83.8,456.5,97 M468.4,97c0-6.8,3-13.6,10.6-13.6l0,0c7.7,0,10.6,6.7,10.6,13.6l0,0c0,6.8-2.9,13.6-10.6,13.6
					l0,0C471.3,110.6,468.4,103.9,468.4,97"/>
			</g>
		</g>
	</g>
	<g id="g52" transform="matrix(2.1882746,0,0,2.1882746,-424.48991,-160.03331)">
		<g id="g54">
			<g id="g60">
				<g id="g62">
					<path id="path70" d="M534.7,74.2v27.5c0,5.9-2.1,8.9-8,8.9l0,0c-5.9,0-8-3-8-8.9l0,0V74.2h-11.9V101c0,13.2,6.1,19.8,19.9,19.8
						l0,0c13.8,0,19.9-6.6,19.9-19.8l0,0V74.2H534.7z"/>
				</g>
			</g>
		</g>
	</g>
	<g id="g72" transform="matrix(2.1882746,0,0,2.1882746,-424.48991,-160.03331)">
		<g id="g74">
			<g id="g80">
				<g id="g82">
					<path id="path90" d="M194,74.2v10.2h12.8v35.4h11.9V84.4h12.8V74.2H194L194,74.2z"/>
				</g>
			</g>
		</g>
	</g>
	<g id="g92" transform="matrix(2.1882746,0,0,2.1882746,-424.48991,-160.03331)">
		<g id="g94">
			<g id="g100">
				<g id="g102">
					<path id="path110" d="M311.3,74.2v27.5c0,5.9-2.1,8.9-8,8.9l0,0c-5.9,0-8-3-8-8.9l0,0V74.2h-11.9V101
						c0,13.2,6.1,19.8,19.9,19.8l0,0c13.8,0,19.9-6.6,19.9-19.8l0,0V74.2H311.3z"/>
				</g>
			</g>
		</g>
	</g>
	<g id="g112" transform="matrix(2.1882746,0,0,2.1882746,-424.48991,-160.03331)">
		<g id="g114">
			<g id="g120">
				<g id="g122">
					<path id="path130" d="M329.9,87.1c0,8.4,6.9,11.3,13.4,13.2l0,0c6.6,1.9,13.1,2.6,13.1,6.6l0,0c0,3.4-3.7,4.7-7.3,4.7l0,0
						c-5.1,0-8.4-1.7-8.6-7.1l0,0h-11.9c0,11.7,9.4,16.3,19.8,16.3l0,0c10,0,19.9-3.7,19.9-15.3l0,0c0-8.2-6.6-11.3-13.2-13.2l0,0
						c-6.6-1.9-13.2-2.4-13.2-6l0,0c0-3,3.2-3.9,5.8-3.9l0,0c3.6,0,7.5,1.4,7.4,5.5l0,0H367c0-10.2-9.3-14.7-18.3-14.7l0,0
						C339.9,73.2,329.9,77.1,329.9,87.1"/>
				</g>
			</g>
		</g>
	</g>
	<g id="g132" transform="matrix(2.1882746,0,0,2.1882746,-424.48991,-160.03331)">
		<g id="g134">
			<g id="g140">
				<g id="g142">
					<path id="path150" d="M370.9,74.2v10.2h12.8v35.4h11.9V84.4h12.8V74.2H370.9L370.9,74.2z"/>
				</g>
			</g>
		</g>
	</g>
	<g id="g152" transform="matrix(2.1882746,0,0,2.1882746,-424.48991,-160.03331)">
		<g id="g154">
			<g id="g160">
				<g id="g162">
					<path id="path170" d="M237.6,74.2v45.7h11.9v-15.2h7.6l7.4,15.2h13.6l-9.8-16.9c4.7-2.2,7.5-6.6,7.5-14l0,0
						c0-10.8-8-14.7-16.5-14.7l0,0L237.6,74.2L237.6,74.2z M249.5,83.7h8c3.6,0,6.4,1.7,6.4,6l0,0c0,4.2-2.6,5.7-6.4,5.7l0,0h-8
						V83.7L249.5,83.7z"/>
				</g>
			</g>
		</g>
	</g>
	<g id="g274" transform="translate(552.7529,322.4009)">
		<path id="path276" d="M408.2-272.6h-33.1l-14.2,12.4v-59.7h47.4L408.2-272.6L408.2-272.6L408.2-272.6z"/>
	</g>
	<g id="g278" transform="translate(531.124,322.4009)">
		<path id="path280" d="M370.7-272.6h-33.2l-14.2,12.4v-59.7h47.4L370.7-272.6L370.7-272.6z"/>
	</g>
	<g id="g282" transform="translate(509.4922,322.4009)">
		<path id="path284" d="M333.2-272.6h-33.1l-14.2,12.4v-59.7h47.4L333.2-272.6L333.2-272.6z"/>
	</g>
</g>
</svg>
