<?xml version="1.0" encoding="UTF-8" standalone="no"?>
<!-- Created with Inkscape (http://www.inkscape.org/) -->
<svg
   xmlns:svg="http://www.w3.org/2000/svg"
   xmlns="http://www.w3.org/2000/svg"
   version="1.0"
   width="1070.4714"
   height="297.84235"
   id="svg2"
   xml:space="preserve"><defs
     id="defs5" /><path
     d="M 952.43351,107.04691 C 937.26072,107.03189 922.08879,107.48706 906.95183,108.42324 C 892.18799,109.74301 879.21692,115.89575 870.72915,124.97056 C 879.86403,141.66677 885.02429,160.63042 885.02429,180.86861 C 885.02429,201.57522 879.6228,221.16949 870.10354,238.4558 C 878.56576,247.91499 891.79161,254.36674 906.95183,255.72257 C 937.22574,257.58438 967.64281,257.55061 997.91518,255.62873 C 1022.1398,253.42158 1041.3206,238.16526 1044.1163,218.46763 C 1046.5052,194.25511 1046.5051,169.90119 1044.1163,145.67818 C 1041.3206,125.97904 1022.1398,110.72573 997.91518,108.51708 C 982.77903,107.5569 967.60632,107.06191 952.43351,107.04691 z M 38.264293,109.45549 L 38.264293,148.6811 L 120.15633,148.6811 L 33.540957,215.15191 L 32.508698,215.90264 C 27.683464,219.91153 24.563486,226.03121 24.563486,232.82533 C 24.563486,244.70936 34.019813,254.39004 45.77158,254.69032 L 176.21079,254.69032 L 176.71127,215.46472 L 101.51323,215.46472 L 188.06605,148.93134 C 193.44277,144.95847 196.94968,138.55901 196.94968,131.32048 C 196.94968,119.25626 187.22598,109.45548 175.20981,109.45549 L 38.264293,109.45549 z M 253.31693,109.45549 L 179.46395,254.69032 L 230.79506,254.69032 L 242.55648,230.04137 L 320.5072,230.04137 L 332.98807,254.69032 L 384.1315,254.69032 L 309.12114,109.45549 L 253.31693,109.45549 z M 356.6986,109.45549 L 356.6986,149.83847 L 404.18222,149.83847 L 404.18222,254.69032 L 452.32273,254.69032 L 452.32273,149.83847 L 499.80635,149.83847 L 499.80635,109.45549 L 356.6986,109.45549 z M 511.0673,109.45549 L 511.0673,149.83847 L 558.55092,149.83847 L 558.55092,254.69032 L 606.69143,254.69032 L 606.69143,149.83847 L 624.33357,149.83847 C 628.41453,135.07463 635.35778,121.45816 644.5407,109.45549 L 511.0673,109.45549 z M 952.33968,144.80233 C 961.6033,144.80233 970.86768,145.11138 980.11669,145.77203 C 988.90469,146.65937 995.6383,152.32766 996.69526,159.25386 C 998.27927,174.42611 998.27936,189.66763 996.69526,204.82939 C 995.66377,211.77963 988.90469,217.49691 980.11669,218.37379 C 961.61868,219.70559 943.06066,219.70556 924.56269,218.37379 C 915.78667,217.49695 909.05886,211.81817 908.01537,204.89195 C 906.40581,189.71821 906.40578,174.47664 908.01537,159.31643 C 909.03486,152.36617 915.76264,146.65939 924.56269,145.77203 C 933.81168,145.11138 943.07604,144.80233 952.33968,144.80233 z M 281.18775,151.15225 L 302.61481,194.25661 L 260.32374,194.25661 L 281.18775,151.15225 z"
     id="schwarz"
     style="fill:#000000;fill-opacity:1;fill-rule:nonzero;stroke:none" /><path
     d="M 708.6856,233.53362 C 700.92005,232.29791 693.63348,230.46163 687.39191,228.62385 C 679.00026,225.98428 672.89083,219.45444 671.36685,210.11537 C 668.04112,190.5844 668.05313,169.21865 670.92242,149.13514 C 672.68663,139.68946 678.221,132.83531 686.80334,129.96602 C 705.87787,122.91967 754.94854,113.32836 792.92793,116.64207 C 803.38408,117.6976 811.8343,125.2124 813.65857,136.19557 C 814.49938,141.04528 815.49635,146.57966 815.59245,152.1846 C 814.5114,145.46257 809.87789,143.45812 804.07926,142.77346 C 767.75747,139.61739 721.60264,148.90841 703.85992,155.70252 C 700.00717,157.39466 696.743,159.96365 695.77005,165.55659 C 693.33318,179.80543 693.68153,209.31059 696.75501,221.11055 C 700.0432,231.26491 707.17363,233.11471 708.6856,233.53362"
     id="highlight"
     style="fill:#fecc8a;fill-opacity:1;fill-rule:nonzero;stroke:none" /><path
     d="M 632.95504,180.78888 C 632.95504,119.90625 686.37092,70.559309 752.27144,70.559309 C 818.15994,70.559309 871.58933,119.90625 871.58933,180.78888 C 871.58933,241.66102 818.15994,291.00794 752.27144,291.00794 C 686.37092,291.00794 632.95504,241.66102 632.95504,180.78888 M 789.12323,239.46438 C 764.31163,241.39676 729.07991,237.75872 708.6856,233.53362 C 700.82397,231.94958 696.31058,230.77394 690.06751,228.92414 C 681.72541,226.45274 675.08747,221.53096 672.36232,209.58685 C 669.27832,194.27048 668.29337,169.0625 671.15064,148.96848 C 672.85479,140.10837 678.20899,133.02749 686.79133,130.14619 C 705.86586,123.09984 754.88848,113.56859 792.87988,116.83426 C 802.5793,117.67358 811.78625,125.2124 813.58649,136.18355 C 814.42731,141.03327 815.09997,146.44752 815.59245,152.1846 C 817.47677,174.29508 816.87619,199.70726 813.11954,218.94996 C 810.08209,233.1027 804.09278,238.2527 789.12323,239.46438"
     id="orange"
     style="fill:#ff7f00;fill-opacity:1;fill-rule:evenodd;stroke:none" /><path
     d="M 804.98013,6.8344156 L 812.2547,12.452876 L 749.41566,94.174253 L 745.86171,98.771714 L 742.20115,94.258329 L 693.48333,34.539321 L 700.61376,28.742195 L 745.65751,83.958332"
     id="antenne"
     style="fill:#ff7f00;fill-opacity:1;fill-rule:nonzero;stroke:none" /></svg>