<svg viewBox="0 0 157 157" xmlns="http://www.w3.org/2000/svg"><g opacity=".998"><path d="M31.746 63.5c31.2-.7 62.4.8 93.3 4.6 9.6 1.2 17.8-9.6 17.8-19.2 0-11.3-8.2-18-17.8-19.2-31-3.8-62.2-5.3-93.3-4.6-23 .6-23 39 0 38.4M38.214 106.281c33.7 3.1 67.4 5.7 101.1 7.8 22.9 1.4 22.9-36.9 0-38.3-33.7-2.1-67.5-4.7-101.1-7.8-22.8-2.1-22.7 36.2 0 38.3" fill="#e0ff68"/><path d="M16.04 42.241v7.8h87.7v17.6H8.24v-9.8H.44v17.5h111.1v-33.1zM.435 83.159v33.1h48.7v7.9H.435v7.8h95.5v-7.8h-38.9v-7.9h54.6v-33.1zm7.8 7.8h95.5v17.6h-95.5z" fill="#082d50"/><path d="M.4 42.232v7.8h7.8v-7.8z" fill="#fff"/><g fill="#082d50"><path d="M.4 42.232v7.8h7.8v-7.8zM97.9 54.9H78.4v7.8h19.5zM103.7 131.9h7.8v-7.8h-7.8zM78.4 103.6h19.5v-7.8H78.4z"/></g></g></svg>