<svg xmlns="http://www.w3.org/2000/svg" viewBox="0 0 157 157"><clipPath id="a"><path d="M6.2 23.7h144.5v109.6H6.2z"/></clipPath><g opacity=".998"><g fill="#e0ff68" clip-path="url(#a)"><path d="M50.458 74.1c23-1.2 46-1.8 69-2 31.1-.2 31.2-48.6 0-48.5-23 .1-46 .8-69 2-30.9 1.7-31.1 50.2 0 48.5"/><path d="M49.119 113.954c7.5-.3 15.1 0 22.6.8 5.7.7 13.2-3.2 17.1-7.1 4.2-4.2 7.3-11.1 7.1-17.1-.3-6.3-2.3-12.8-7.1-17.1-5-4.6-10.4-6.3-17.1-7.1-7.5-.9-15-1.1-22.6-.8-12.6.4-24.7 10.7-24.1 24.2.5 12.7 10.6 24.7 24.1 24.2M127.274 114.817c1.9-.3 3.8-.6 5.8-.9 3.1-.7 5.9-2.2 8.2-4.3 2.6-1.7 4.8-4 6.2-6.8 1.7-2.7 2.7-5.8 2.9-9 .7-3.2.6-6.5-.4-9.7-.8-1.9-1.6-3.9-2.4-5.8-2.2-3.6-5.2-6.6-8.8-8.7l-5.8-2.4c-4.2-1.2-8.6-1.2-12.9 0l-5.7.9c-3.1.7-5.9 2.2-8.2 4.3-2.6 1.7-4.8 4-6.2 6.8-1.7 2.7-2.7 5.8-2.9 9-.7 3.2-.6 6.5.4 9.7.8 1.9 1.6 3.9 2.4 5.8 2.1 3.6 5.1 6.6 8.7 8.7l5.8 2.4c4.2 1.2 8.7 1.2 12.9 0"/></g><g fill="#082d50"><path d="M21.839 43.637v7.8h87.7v27.3h-95.5v-19.5h-7.8v27.3h111.1v-42.9zM6.3 133.3h64.2v-39H6.3zm7.8-31.2h48.6v23.4H14.1zM78.452 94.319v39h23.3v-7.8h-15.5v-23.4h23.3v15.6h7.8v-23.4zM6.2 43.629v7.8H14v-7.8z"/></g><path fill="#fff" d="M109.615 125.501v7.8h7.8v-7.8z"/><path fill="#082d50" d="M109.615 125.501v7.8h7.8v-7.8z"/></g></svg>