<svg viewBox="0 0 157 157" xmlns="http://www.w3.org/2000/svg"><path d="M148.1 55.2c0-1.3.1-2.6.3-4.1.1-1.5.3-3.1.4-4.8.1-2.5 0-4.9-.2-7.4-.3-.9-.5-1.7-.8-2.6-.5-.4-1.1-.6-1.7-.6-.5-2.4-1.1-4.8-1.9-7.1-1.9-3.1-4.2-6-6.9-8.4-2.3-2-5-3.6-7.8-4.5-5-1.5-9.9-1.7-16.5-1.2-3.9.4-7.7 1.1-11.5 2.2-5.9 1.7-11.5 4.2-16.7 7.4-1.7 1.1-3.3 2-4.9 3.3-1.7 1.3-3.3 2.4-4.9 3.9-1.6 1.4-3.2 2.8-4.6 4.2l-4 4.5c-2.5 3.1-4.5 6.5-6 10.2h-.1c-1.5.7-2.9 1.6-4.1 2.7 1.1-1 2.2-2 3.2-2.8-1.6-.2-3.2-.1-4.8.3-3 1.2-5.9 2.8-8.6 4.7-2.5 1.8-4.6 4.1-6.1 6.8-1.2 2.4-2.2 5-3 7.6-.8 2.8-1.3 5.8-1.4 8.7-.4 6.4.7 12.7 3.3 18.6 1.5 3.5 3.6 6.8 6 9.6 2.7 3.1 5.9 5.8 9.5 7.9 5.8 3.4 12.4 5.3 19.2 5.6 4.4.2 8.7-.1 13-1 3.2-.6 6.3-1.4 9.4-2.5 5.5-1.9 10.8-4.4 15.8-7.4-.6-1.1-2.2-1.5-1-2.9 2-1.9 4.3-2.6 6.6-3.4 2.5-.6 4.8-2 6.5-3.9l-1-1.8 1.4-.8 2-1.3c1.2-.8 2.5-1.7 3.8-2.6 2.6-1.8 5-3.9 7.3-6 7-9.2 11.5-19.7 12.6-30.2-1 .1-1.7.2-1.8-.9zm-88.8-2.9c-.1.2-.1.3-.2.5-.7.5-1.5 1.1-2.1 1.6.7-.7 1.5-1.4 2.3-2.1zm-.4 1.3c-.2.7-.4 1.3-.5 2v1h-.1c-1.1 0-2.8.4-5.4 2.4 1.6-2.2 3.9-3.9 6-5.4z" fill="#e0ff68"/><g fill="#082d50"><path d="M22.9 41v7.8l87.7-.1v54.6l-36.7.1-34.7 24.4v-24.4H15.1V56.5H7.3v54.7h24.1v31.6l45-31.6 42.1-.1V40.9zM7.303 40.907v7.8h7.8v-7.8z"/><path d="M93.1 64.3H32.6v7.8H93v-7.8zM77.5 79.9H32.6v7.8h44.8zM85.3 87.7h7.8v-7.8h-7.8z"/></g></svg>