<svg xmlns="http://www.w3.org/2000/svg" viewBox="0 0 111.2 70.6"><g fill="#082d50"><path d="M55.617 20.2c5.4-.1 9.8-4.6 9.7-10.1.1-5.5-4.2-10-9.7-10.1-5.5.1-9.8 4.6-9.7 10.1-.1 5.4 4.2 9.9 9.7 10.1M21.787 20.2c5.4-.1 9.8-4.6 9.7-10.1.1-5.5-4.2-10-9.7-10.1-5.5.1-9.8 4.6-9.7 10.1-.1 5.4 4.2 9.9 9.7 10.1M89.4 25.194c-6.6 0-12.9 3.2-16.9 8.5-4-5.3-10.3-8.5-16.9-8.5s-12.9 3.2-16.9 8.5c-4.1-5.3-10.3-8.5-17-8.5-11.9 0-21.7 10.2-21.7 22.7v7.6h9.7v-7.6c-.1-6.8 5.3-12.4 12.1-12.6 6.8.2 12.2 5.8 12.1 12.6v22.7h9.7v-22.7c-.1-6.8 5.3-12.4 12.1-12.6 6.8.2 12.2 5.8 12.1 12.6v22.7h9.7v-22.7c-.1-6.8 5.3-12.4 12.1-12.6 6.8.2 12.2 5.8 12.1 12.6v7.6h9.7v-7.6c-.2-12.5-10-22.7-22-22.7M89.447 20.2c5.4-.1 9.8-4.6 9.7-10.1.1-5.5-4.2-10-9.7-10.1-5.5.1-9.8 4.6-9.7 10.1-.1 5.4 4.2 9.9 9.7 10.1M0 70.6h9.7V60.5H0zM101.5 70.6h9.7V60.5h-9.7z"/></g></svg>