<?xml version="1.0" encoding="utf-8"?>
<!-- Generator: Adobe Illustrator 26.2.1, SVG Export Plug-In . SVG Version: 6.00 Build 0)  -->
<svg version="1.1" id="Ebene_1" xmlns="http://www.w3.org/2000/svg" xmlns:xlink="http://www.w3.org/1999/xlink" x="0px" y="0px"
	 viewBox="0 0 157 157" style="enable-background:new 0 0 157 157;" xml:space="preserve">
<style type="text/css">
	.st0{opacity:0.998;}
	.st1{clip-path:url(#SVGID_00000165933243252589996560000011572743034439793825_);}
	.st2{fill:#E0FF68;}
	.st3{fill:#082D50;}
	.st4{fill:#FFFFFF;}
</style>
<g id="Gruppe_71" class="st0">
	<g>
		<defs>
			<rect id="SVGID_1_" x="6.2" y="23.7" width="144.5" height="109.6"/>
		</defs>
		<clipPath id="SVGID_00000059305928898311178440000012493150961066644382_">
			<use xlink:href="#SVGID_1_"  style="overflow:visible;"/>
		</clipPath>
		
			<g id="Gruppe_65" transform="translate(0 0)" style="clip-path:url(#SVGID_00000059305928898311178440000012493150961066644382_);">
			<g id="Gruppe_62" transform="translate(20.958 0)">
				<path id="Pfad_49" class="st2" d="M29.5,74.1c23-1.2,46-1.8,69-2c31.1-0.2,31.2-48.6,0-48.5c-23,0.1-46,0.8-69,2
					C-1.4,27.3-1.6,75.8,29.5,74.1"/>
			</g>
			<g id="Gruppe_63" transform="translate(18.719 41.654)">
				<path id="Pfad_50" class="st2" d="M30.4,72.3c7.5-0.3,15.1,0,22.6,0.8c5.7,0.7,13.2-3.2,17.1-7.1c4.2-4.2,7.3-11.1,7.1-17.1
					c-0.3-6.3-2.3-12.8-7.1-17.1c-5-4.6-10.4-6.3-17.1-7.1c-7.5-0.9-15-1.1-22.6-0.8C17.8,24.3,5.7,34.6,6.3,48.1
					C6.8,60.8,16.9,72.8,30.4,72.3"/>
			</g>
			<g id="Gruppe_64" transform="translate(90.374 42.617)">
				<path id="Pfad_51" class="st2" d="M36.9,72.2c1.9-0.3,3.8-0.6,5.8-0.9c3.1-0.7,5.9-2.2,8.2-4.3c2.6-1.7,4.8-4,6.2-6.8
					c1.7-2.7,2.7-5.8,2.9-9c0.7-3.2,0.6-6.5-0.4-9.7c-0.8-1.9-1.6-3.9-2.4-5.8C55,32.1,52,29.1,48.4,27l-5.8-2.4
					c-4.2-1.2-8.6-1.2-12.9,0L24,25.5c-3.1,0.7-5.9,2.2-8.2,4.3c-2.6,1.7-4.8,4-6.2,6.8c-1.7,2.7-2.7,5.8-2.9,9
					c-0.7,3.2-0.6,6.5,0.4,9.7c0.8,1.9,1.6,3.9,2.4,5.8c2.1,3.6,5.1,6.6,8.7,8.7l5.8,2.4C28.2,73.4,32.7,73.4,36.9,72.2"/>
			</g>
		</g>
	</g>
	<g id="Gruppe_66" transform="translate(0.039 19.937)">
		<path id="Pfad_53" class="st3" d="M21.8,23.7v7.8h87.7v27.3H14V39.3H6.2v27.3h111.1V23.7H21.8z"/>
	</g>
	<path id="Pfad_54" class="st3" d="M6.3,133.3h64.2v-39H6.3V133.3z M14.1,102.1h48.6v23.4H14.1V102.1z"/>
	<g id="Gruppe_67" transform="translate(72.252 70.619)">
		<path id="Pfad_55" class="st3" d="M6.2,23.7v39h23.3v-7.8H14V31.5h23.3v15.6h7.8V23.7H6.2z"/>
	</g>
	<g id="Gruppe_68" transform="translate(0 19.929)">
		<path id="Pfad_56" class="st3" d="M6.2,23.7v7.8h7.8v-7.8H6.2z"/>
	</g>
	<g id="Gruppe_69" transform="translate(103.315 101.801)">
		<path id="Pfad_57" class="st4" d="M6.3,23.7L6.3,23.7l0,7.8h7.8v-7.8H6.3z"/>
	</g>
	<g id="Gruppe_70" transform="translate(103.315 101.801)">
		<path id="Pfad_58" class="st3" d="M6.3,23.7L6.3,23.7l0,7.8h7.8v-7.8H6.3z"/>
	</g>
</g>
</svg>
