<?xml version="1.0" encoding="utf-8"?>
<!-- Generator: Adobe Illustrator 27.1.1, SVG Export Plug-In . SVG Version: 6.00 Build 0)  -->
<svg version="1.1" id="Ebene_1" xmlns="http://www.w3.org/2000/svg" xmlns:xlink="http://www.w3.org/1999/xlink" x="0px" y="0px"
	 viewBox="0 0 199.6 157" style="enable-background:new 0 0 199.6 157;" xml:space="preserve">
<style type="text/css">
	.st0{fill:#E0FF68;}
	.st1{fill:none;}
	.st2{fill:#082D50;}
</style>
<path class="st0" d="M177.4,58.6c-0.2-2-0.4-4.5-0.9-6.5c-0.1-0.3-0.2-0.5-0.2-0.8c-0.7-1.9-1.5-4.5-2.8-6.3
	c-0.8-1.2-2.7-3.6-3.6-4.7c-0.1-0.1-0.1-0.1-0.2-0.2c-0.2-0.2-0.4-0.3-0.6-0.5c-3.9-3.3-7-5.4-12.1-6.8c-0.5-0.1-1-0.2-1.4-0.3
	c-2.4-0.4-4.9-0.8-7.4-0.9c-1.2,0-2.4,0-3.6,0.2c-3.1,0.4-6.3,0.7-9.3,1.5c-2.9,0.7-5.5,2-7.7,4c-2.4,1.6-4.4,3.7-5.8,6.3
	c-1.6,2.6-2.5,5.4-2.7,8.4c-0.7,3-0.5,5.9,0.4,8.9c-2.4-0.9-5-1.4-7.7-1.4c-1,0-2,0-3-0.1c-0.6-0.1-1.1-0.2-1.7-0.3
	c1.8-1.9,3.1-4.1,3.9-6.5c1.4-2.7,2.1-5.6,1.9-8.7c-0.3-5.8-2.2-11.9-6.6-15.9c-1.5-1.2-3-2.3-4.6-3.5c-3.5-2-7.3-3.1-11.4-3.1
	c-9.6-0.3-19.2-0.7-28.8,0c-3.1-0.1-6,0.5-8.7,1.9c-2.8,0.9-5.2,2.5-7.2,4.7c-2.2,2-3.7,4.5-4.7,7.2c-1.4,2.7-2.1,5.6-1.9,8.7
	c0.3,5.8,2.2,11.9,6.6,15.9c0.9,0.8,1.8,1.5,2.8,2.2c-0.9,0.8-1.6,1.8-2.3,2.8c-2,2.2-3.3,4.7-4,7.7c-0.9,3-1.1,6-0.4,9
	c0.1,2,0.5,3.9,1.3,5.7c-1.3,0.8-2.4,1.8-3.5,2.9c-2.2,2-3.7,4.5-4.7,7.2c-1.4,2.7-2.1,5.6-1.9,8.7c0.3,2,0.5,4,0.8,6
	c1.1,3.8,3,7.1,5.8,9.9c1.5,1.2,3,2.3,4.6,3.5c3.5,2,7.3,3.1,11.4,3.1c3,0.1,6.1-0.1,9.1-0.5c3.6-0.5,7.2-1,10.8-1.5
	c0.5-0.1,0.9-0.1,1.4-0.2c3.1,0.1,6-0.5,8.7-1.9c2.8-0.9,5.2-2.5,7.2-4.7c2.2-2,3.7-4.5,4.7-7.2c1.4-2.7,2.1-5.6,1.9-8.7
	c0-0.2-0.1-0.4-0.1-0.6c4.1,0.6,8.4,1.4,12.6,1.3c3.1,0.1,6-0.5,8.7-1.9c2.8-0.9,5.2-2.5,7.2-4.7c2.2-2,3.7-4.5,4.7-7.2
	c0.3-0.6,0.6-1.2,0.8-1.7c0.3,0.4,0.7,0.7,1,1.1c1.5,1.2,3,2.3,4.6,3.5c3.5,2,7.3,3.1,11.4,3.1c2-0.3,4-0.5,6-0.8
	c3.8-1.1,7.1-3,9.9-5.8c1.9-2.4,3.9-4.6,5.2-7.3c1.4-2.9,2.7-5.9,3.7-9c0.5-1.3,0.9-2.7,1.2-4.1c0.1-0.6,0.3-1.2,0.4-1.8
	c0.4-2.5,0.8-5,1-7.5C177.4,59.7,177.4,59.1,177.4,58.6z"/>
<g>
	<path class="st1" d="M126.7,62.4h-2c-2.1,0-3.7,1.7-3.7,3.7s1.7,3.7,3.7,3.7h2.1c0-0.1,0-0.2,0-0.3V62.4z"/>
	<path class="st1" d="M159.5,62.4L159.5,62.4l0-7.7h0v-1.9h-25v16.8c0,6.9,5.6,12.5,12.5,12.5s12.5-5.6,12.5-12.5V62.4z"/>
	<path class="st1" d="M169.2,62.4h-2v7.2c0,0.1,0,0.2,0,0.3h2.1c2.1,0,3.7-1.7,3.7-3.7S171.3,62.4,169.2,62.4z"/>
	<polygon class="st2" points="79.6,70.1 90.4,80.9 34.3,80.9 34.3,88.6 90.4,88.6 79.6,99.3 85.1,104.8 105.2,84.7 85.1,64.7 	"/>
	<polygon class="st2" points="48.7,67.4 54.1,72.8 74.2,52.8 54.1,32.7 48.7,38.2 59.5,48.9 19,48.9 19,56.6 59.5,56.6 	"/>
	<polygon class="st2" points="48.5,101.6 59.4,112.5 18.9,112.5 18.9,120.2 59.2,120.2 48.5,130.8 53.9,136.3 74,116.2 53.9,96.1 	
		"/>
	<path class="st2" d="M169.2,54.7h-2v-9.6h-40.4v9.6h-2c-6.3,0-11.4,5.1-11.4,11.4s5.1,11.4,11.4,11.4h3.7c2.6,6,8.1,10.6,14.7,11.9
		v13.4h-6.7v7.7h-7.7v7.7h36.6v-7.7h-7.7v-7.7h-6.7V89.4c6.6-1.3,12.1-5.8,14.7-11.9h3.7c6.3,0,11.4-5.1,11.4-11.4
		S175.5,54.7,169.2,54.7z M124.7,69.9c-2.1,0-3.7-1.7-3.7-3.7s1.7-3.7,3.7-3.7h2v7.2c0,0.1,0,0.2,0,0.3H124.7z M147,82.1
		c-6.9,0-12.5-5.6-12.5-12.5V52.8h25v1.9h0v7.7h0v7.2C159.5,76.5,153.9,82.1,147,82.1z M169.2,69.9h-2.1c0-0.1,0-0.2,0-0.3v-7.2h2
		c2.1,0,3.7,1.7,3.7,3.7S171.3,69.9,169.2,69.9z"/>
	<rect x="18.9" y="80.9" class="st2" width="7.7" height="7.6"/>
</g>
</svg>
