<?xml version="1.0" encoding="utf-8"?>
<!-- Generator: Adobe Illustrator 26.2.1, SVG Export Plug-In . SVG Version: 6.00 Build 0)  -->
<svg version="1.1" id="Ebene_1" xmlns="http://www.w3.org/2000/svg" xmlns:xlink="http://www.w3.org/1999/xlink" x="0px" y="0px"
	 viewBox="0 0 157 157" style="enable-background:new 0 0 157 157;" xml:space="preserve">
<style type="text/css">
	.st0{fill:#E0FF68;}
	.st1{fill:#082D50;}
</style>
<path class="st0" d="M148.1,55.2c0-1.3,0.1-2.6,0.3-4.1c0.1-1.5,0.3-3.1,0.4-4.8c0.1-2.5,0-4.9-0.2-7.4c-0.3-0.9-0.5-1.7-0.8-2.6
	c-0.5-0.4-1.1-0.6-1.7-0.6c-0.5-2.4-1.1-4.8-1.9-7.1c-1.9-3.1-4.2-6-6.9-8.4c-2.3-2-5-3.6-7.8-4.5c-5-1.5-9.9-1.7-16.5-1.2
	c-3.9,0.4-7.7,1.1-11.5,2.2c-5.9,1.7-11.5,4.2-16.7,7.4c-1.7,1.1-3.3,2-4.9,3.3c-1.7,1.3-3.3,2.4-4.9,3.9c-1.6,1.4-3.2,2.8-4.6,4.2
	l-4,4.5c-2.5,3.1-4.5,6.5-6,10.2h-0.1c-1.5,0.7-2.9,1.6-4.1,2.7c1.1-1,2.2-2,3.2-2.8c-1.6-0.2-3.2-0.1-4.8,0.3
	c-3,1.2-5.9,2.8-8.6,4.7c-2.5,1.8-4.6,4.1-6.1,6.8c-1.2,2.4-2.2,5-3,7.6c-0.8,2.8-1.3,5.8-1.4,8.7c-0.4,6.4,0.7,12.7,3.3,18.6
	c1.5,3.5,3.6,6.8,6,9.6c2.7,3.1,5.9,5.8,9.5,7.9c5.8,3.4,12.4,5.3,19.2,5.6c4.4,0.2,8.7-0.1,13-1c3.2-0.6,6.3-1.4,9.4-2.5
	c5.5-1.9,10.8-4.4,15.8-7.4c-0.6-1.1-2.2-1.5-1-2.9c2-1.9,4.3-2.6,6.6-3.4c2.5-0.6,4.8-2,6.5-3.9l-1-1.8l1.4-0.8l2-1.3
	c1.2-0.8,2.5-1.7,3.8-2.6c2.6-1.8,5-3.9,7.3-6c7-9.2,11.5-19.7,12.6-30.2C148.9,56.2,148.2,56.3,148.1,55.2z M59.3,52.3
	c-0.1,0.2-0.1,0.3-0.2,0.5c-0.7,0.5-1.5,1.1-2.1,1.6C57.7,53.7,58.5,53,59.3,52.3z M58.9,53.6c-0.2,0.7-0.4,1.3-0.5,2v1
	c0,0,0,0-0.1,0c-1.1,0-2.8,0.4-5.4,2.4C54.5,56.8,56.8,55.1,58.9,53.6z"/>
<g id="Gruppe_51" transform="translate(0 26.7)">
	<path id="Pfad_37" class="st1" d="M22.9,14.3v7.8l87.7-0.1v54.6l-36.7,0.1l-34.7,24.4V76.7H15.1V29.8H7.3v54.7h24.1v31.6l45-31.6
		l42.1-0.1V14.2L22.9,14.3z"/>
</g>
<g id="Gruppe_52" transform="translate(0.003 26.707)">
	<path id="Pfad_38" class="st1" d="M7.3,14.2V22h7.8v-7.8H7.3z"/>
</g>
<path id="Pfad_39" class="st1" d="M93.1,64.3H32.6v7.8H93v-7.8H93.1z"/>
<path id="Pfad_40" class="st1" d="M77.5,79.9H32.6v7.8h44.8L77.5,79.9L77.5,79.9z"/>
<path id="Pfad_41" class="st1" d="M85.3,87.7h7.8v-7.8h-7.8V87.7z"/>
</svg>
