<?xml version="1.0" encoding="utf-8"?>
<!-- Generator: Adobe Illustrator 26.2.1, SVG Export Plug-In . SVG Version: 6.00 Build 0)  -->
<svg version="1.1" id="Ebene_1" xmlns="http://www.w3.org/2000/svg" xmlns:xlink="http://www.w3.org/1999/xlink" x="0px" y="0px"
	 viewBox="0 0 157 157" style="enable-background:new 0 0 157 157;" xml:space="preserve">
<style type="text/css">
	.st0{fill:#E0FF68;}
	.st1{fill:#082D50;}
</style>
<path class="st0" d="M148.2,36.6c-0.8-30.2-49.4-30.3-48.6,0c0.3,12.7,0.1,25.5-0.7,38.2c-0.3-0.1-0.6-0.2-0.9-0.2
	c-3.1-1-6.5-1.1-9.7-0.4c-1.9,0.1-3.7,0.4-5.5,1.1c0-2.4,0.1-4.8,0.1-7.2c0.2-12.3-11.3-24-24.3-23.5C45.3,45.1,34.5,54.8,34.4,68
	c-0.2,12.6-0.4,25.2-0.5,37.8c-0.2,12.3,11.3,24,24.3,23.5c7.5-0.3,14.2-3.6,18.7-8.7c0.3,0.2,0.6,0.4,0.9,0.6
	c2.4,2.1,5.2,3.5,8.3,4.2l6.5,0.8c3.2,0,6.4-0.6,9.4-1.8c4.9,4.8,11.8,7.8,18.1,7.8c14.6,0,22.6-10.9,24.3-23.5
	C147.5,84.9,148.8,60.7,148.2,36.6z"/>
<g id="Gruppe_58" transform="translate(0 39.479)">
	<path id="Pfad_46" class="st1" d="M77.6,13.9v47.6H50.9V37.6H8.7v50.5h7.8V45.4h26.7v50.4H24.3v7.8h95.5V29.5H112v66.3H85.3V21.7
		h18.9v-7.8H77.6z M50.9,69.3h26.7v26.5H50.9V69.3z"/>
</g>
<g id="Gruppe_59" transform="translate(103.332 39.475)">
	<path id="Pfad_47" class="st1" d="M8.7,21.7h7.8v-7.8H8.7V21.7L8.7,21.7z"/>
</g>
<g id="Gruppe_60" transform="translate(0.017 121.347)">
	<path id="Pfad_48" class="st1" d="M16.4,13.9H8.7v7.8h7.8L16.4,13.9L16.4,13.9z"/>
</g>
</svg>
