<?xml version="1.0" encoding="utf-8"?>
<!-- Generator: Adobe Illustrator 27.1.1, SVG Export Plug-In . SVG Version: 6.00 Build 0)  -->
<svg version="1.1" xmlns="http://www.w3.org/2000/svg" xmlns:xlink="http://www.w3.org/1999/xlink" x="0px" y="0px"
	 viewBox="-80 0 268.6 157" style="enable-background:new 0 0 188.6 157;" xml:space="preserve">
<style type="text/css">
	.st0{fill:#E0FF68;}
	.st1{fill:none;}
	.st2{fill:#082D50;}
	.st3{fill:#FFFFFF;}
</style>
<g id="Ebene_2">
	<g>
		<path class="st0" d="M54,73.6c1.3,4.5,2.1,9.2,2.7,13.8c-0.2-2.1-0.5-4.1-0.7-6.2c1.5,12.1,1.8,24.4,4.2,36.4c0.6,3,1.9,5.7,3.8,8
			c1.5,2.5,3.4,4.6,5.9,6c2.4,1.7,5,2.6,7.8,2.8c2.8,0.7,5.6,0.6,8.4-0.4c5.1-1.8,10-5.3,12.5-10.7c0.7-1.9,1.4-3.7,2.1-5.6
			c1-4.1,1-8.3,0-12.4c-0.5-2.8-1-5.6-1.3-8.4c0.2,2.1,0.5,4.1,0.7,6.2c-0.7-6.1-1.1-12.2-1.7-18.3c-0.8-7.9-1.6-16-3.8-23.6
			c-1.6-5.7-4.9-10.9-9.6-14c-2.4-1.7-5-2.6-7.8-2.8c-2.8-0.7-5.6-0.6-8.4,0.4c-5.1,1.8-10,5.3-12.5,10.7C53.5,61,52.3,67.5,54,73.6
			L54,73.6z"/>
	</g>
	<g>
		<path class="st0" d="M22.2,83.5c1.2,3.8,2,7.7,2.5,11.7c-0.2-1.8-0.5-3.5-0.7-5.3c1.4,10.3,1.7,20.7,3.9,30.8
			c0.6,2.6,1.8,4.8,3.5,6.7c1.4,2.2,3.2,3.9,5.6,5.1c2.3,1.4,4.7,2.2,7.4,2.3c2.6,0.6,5.3,0.5,7.9-0.4c4.8-1.5,9.4-4.5,11.8-9.1
			c0.7-1.6,1.3-3.2,2-4.7c0.9-3.5,0.9-7,0-10.5c-0.5-2.3-0.9-4.7-1.2-7.1c0.2,1.8,0.5,3.5,0.7,5.3c-0.7-5.1-1-10.3-1.6-15.5
			c-0.8-6.7-1.5-13.5-3.6-20c-1.5-4.9-4.6-9.2-9.1-11.8c-2.3-1.4-4.7-2.2-7.4-2.3c-2.6-0.6-5.3-0.5-7.9,0.4
			c-4.8,1.5-9.4,4.5-11.8,9.1C21.8,72.8,20.6,78.3,22.2,83.5L22.2,83.5z"/>
	</g>
	<g>
		<path class="st0" d="M82.4,64.9c2,9.6,5.4,18.8,6.7,28.5c-0.3-2.1-0.6-4.3-0.9-6.4c0.5,4,0.7,8.1,0.2,12.2
			c0.3-2.1,0.6-4.3,0.9-6.4c-0.1,0.9-0.3,1.8-0.5,2.6c-1,3.2-1.2,6.4-0.4,9.6c0.1,3.2,1.1,6.2,2.9,8.9c1.5,2.8,3.6,5,6.3,6.7
			c2.4,2.1,5.1,3.6,8.3,4.3c2.2,0.3,4.3,0.6,6.5,0.9c4.4,0,8.5-1.1,12.3-3.3c5.1-3.3,9.9-8.3,11.2-14.4c0.8-3.8,1.3-7.6,1.6-11.5
			c0.1-1.9,0.1-3.8,0-5.6c-0.4-5.7-1.3-11.5-2.5-17.1c-1.6-7.4-4-14.5-5.5-21.9c-0.8-3.1-2.2-5.8-4.4-8.2c-1.7-2.6-4-4.7-6.8-6.2
			c-2.8-1.8-5.8-2.7-9-2.9c-3.2-0.7-6.5-0.6-9.7,0.4c-5.9,1.9-11.6,5.5-14.5,11c-0.8,1.9-1.6,3.8-2.5,5.7
			C81.3,56.4,81.3,60.6,82.4,64.9L82.4,64.9z"/>
	</g>
	<g>
		<path class="st0" d="M157.5,29.8c0,0,0-0.1,0-0.1c-0.3,2.2-0.6,4.4-0.9,6.6c0-0.1,0-0.3,0.1-0.4c-0.8,2-1.7,3.9-2.5,5.9
			c0-0.1,0.1-0.2,0.1-0.2c-1.3,1.7-2.6,3.3-3.9,5c0.1-0.1,0.2-0.2,0.3-0.3c-1.7,1.3-3.3,2.6-5,3.9c0.2-0.1,0.4-0.2,0.6-0.3
			c-2,0.8-3.9,1.7-5.9,2.5c0.7-0.3,1.5-0.5,2.3-0.6c-2.2,0.3-4.4,0.6-6.6,0.9c2.6-0.3,5.3-0.2,7.8,0.1c-2.2-0.3-4.4-0.6-6.6-0.9
			c0.4,0.1,0.9,0.1,1.3,0.3c-2-0.8-3.9-1.7-5.9-2.5c0.1,0.1,0.3,0.1,0.4,0.2c-1.7-1.3-3.3-2.6-5-3.9c0.1,0.1,0.2,0.2,0.3,0.3
			c-1.3-1.7-2.6-3.3-3.9-5c0.1,0.2,0.2,0.3,0.3,0.5c-0.8-2-1.7-3.9-2.5-5.9c0.4,1,0.5,2.1,0.6,3.1c-0.3-2.2-0.6-4.4-0.9-6.6
			c0,0.4,0.1,0.8,0.1,1.2c0.4,5.1,0.8,8.3,3.5,12.8c2.2,3.8,5.4,6.9,9.1,9.1c2.1,1.2,4.6,1.9,6.8,2.9c-2-0.8-3.9-1.7-5.9-2.5
			c1.9,0.8,4.4,2.2,6.4,2.7c2.2,0.6,6,0.9,7.1,1c0.6,0.1,1.2,0.1,1.7,0.1c1.2-0.1,2.5-0.3,3.7-0.3c3.4,0.1,6.6-0.6,9.5-2.1
			c3.1-1,5.7-2.7,8-5.1c2.4-2.2,4.1-4.9,5.1-8c1.5-2.9,2.3-6.1,2.1-9.5c-0.3-2.2-0.6-4.4-0.9-6.6c-1.2-4.2-3.3-7.8-6.4-10.9
			c-1.7-1.3-3.3-2.6-5-3.9c-3.9-2.2-8-3.4-12.5-3.4c0,0,0,0-0.1,0c-3.4-0.1-6.6,0.6-9.5,2.1c-3.1,1-5.7,2.7-8,5.1
			c-2.4,2.2-4.1,4.9-5.1,8c-1.5,2.9-2.3,6.1-2.1,9.5c0.3,2.2,0.6,4.4,0.9,6.6c1.2,4.2,3.3,7.8,6.4,10.9c1.7,1.3,3.3,2.6,5,3.9
			c3.9,2.2,8,3.4,12.5,3.4c0.6,0,1.3,0,1.9,0c3.4,0.1,6.6-0.6,9.5-2.1c3.1-1,5.7-2.7,8-5.1c2.4-2.2,4.1-4.9,5.1-8
			c1.5-2.9,2.3-6.1,2.1-9.5c-0.3-2.2-0.6-4.4-0.9-6.6c-1.2-4.2-3.3-7.8-6.4-10.9c-1.7-1.3-3.3-2.6-5-3.9c-3.9-2.2-8-3.4-12.5-3.4
			c-0.1,0-0.3,0-0.4,0c-3.4-0.1-6.6,0.6-9.5,2.1c-3.1,1-5.7,2.7-8,5.1c-2.4,2.2-4.1,4.9-5.1,8c-1.5,2.9-2.3,6.1-2.1,9.5
			c0.3,2.2,0.6,4.4,0.9,6.6c1.2,4.2,3.3,7.8,6.4,10.9c1.7,1.3,3.3,2.6,5,3.9c3.9,2.2,8,3.4,12.5,3.4c0.1,0,0.3,0,0.4,0
			c0-16.5,0-33,0-49.5c-0.6,0-1.3,0-1.9,0c0,16.5,0,33,0,49.5c0,0,0,0,0.1,0c0-16.5,0-33,0-49.5c-1.8,0-3.6,0.5-5.5,0.2
			c2.2,0.3,4.4,0.6,6.6,0.9c-0.3-0.1-0.5-0.1-0.8-0.2c2,0.8,3.9,1.7,5.9,2.5c-2.3-1-4.7-2-7-2.9c2,0.8,3.9,1.7,5.9,2.5
			c-0.1,0-0.2-0.1-0.3-0.2c1.7,1.3,3.3,2.6,5,3.9c0,0,0,0-0.1-0.1c1.3,1.7,2.6,3.3,3.9,5c0,0,0,0,0-0.1c0.8,2,1.7,3.9,2.5,5.9
			c0-0.1,0-0.1-0.1-0.2c0.3,2.2,0.6,4.4,0.9,6.6c-0.4-3.2-0.7-6.4-1.2-9.5c-0.1-0.4-0.2-0.9-0.3-1.3c-0.4-1.4-1.9-4.9-2.6-6.2
			c-0.9-1.7-6.4-7.7-4.1-5.4c-3.3-3.3-7.9-6.1-12.4-7.1c-3-0.7-6.3-1-9.5-1.2c-4.1-0.2-8.1,0.4-12.2,1c-0.5,0.1-1,0.2-1.5,0.3
			c-1.2,0.4-2.5,1-3.5,1.4c-1.2,0.5-2.3,0.9-3.4,1.5c-1.1,0.6-4.3,3.2-5.3,4.1c-1.7,1.5-3,3.4-4.1,5.3c-2.4,4.1-3.5,8.4-3.5,13.1
			c-0.1,3.4,0.6,6.6,2.1,9.5c1,3.1,2.7,5.7,5.1,8c2.2,2.4,4.9,4.1,8,5.1c2.9,1.5,6.1,2.3,9.5,2.1c2.2-0.3,4.4-0.6,6.6-0.9
			c4.2-1.2,7.8-3.3,10.9-6.4c1.3-1.7,2.6-3.3,3.9-5C156.4,38.4,157.5,34.3,157.5,29.8L157.5,29.8z"/>
	</g>
</g>
<g id="Ebene_1">
	<g>
		<polygon class="st1" points="103.4,50.5 118.8,50.5 118.8,59.6 134.2,50.5 142.3,50.5 142.3,31.3 103.4,31.2 		"/>
		<path class="st2" d="M92.7,92.2c-6.7,0-12.7,3.3-16.4,8.4c-3.7-5.1-9.6-8.4-16.4-8.4c-6.7,0-12.7,3.3-16.4,8.4
			c-3.7-5.1-9.6-8.4-16.4-8.4C16.1,92.2,7,101.3,7,112.4v5.6h7.7v-5.6c0-6.9,5.6-12.5,12.5-12.5s12.5,5.6,12.5,12.5v21h7.7v-21h0
			c0-6.9,5.6-12.5,12.5-12.5s12.5,5.6,12.5,12.5v21h7.7v-21c0-6.9,5.6-12.5,12.5-12.5s12.5,5.6,12.5,12.5v21h7.7v-21
			C113,101.3,103.9,92.2,92.7,92.2z"/>
		<path class="st2" d="M92.7,86.7c5.2,0,9.4-4.2,9.4-9.4S97.9,68,92.7,68c-5.2,0-9.3,4.2-9.3,9.4S87.6,86.7,92.7,86.7z"/>
		<path class="st2" d="M60,86.7c5.2,0,9.3-4.2,9.3-9.4S65.2,68,60,68c-5.2,0-9.4,4.2-9.4,9.4S54.8,86.7,60,86.7z"/>
		<circle class="st2" cx="27.2" cy="77.4" r="9.4"/>
		<path class="st3" d="M14.9,125.9v7.6H7.2v-7.6H14.9z"/>
		<rect x="7.2" y="125.9" class="st2" width="7.7" height="7.6"/>
		<path class="st2" d="M95.7,23.5v34.7l15.3,0.1v14.9l25.3-14.9H150V23.6L95.7,23.5z M142.3,50.5h-8.1l-15.5,9.1v-9.1l-15.3-0.1
			V31.2l38.9,0V50.5z"/>
	</g>
</g>
</svg>
