<?xml version="1.0" encoding="utf-8"?>
<!-- Generator: Adobe Illustrator 27.1.1, SVG Export Plug-In . SVG Version: 6.00 Build 0)  -->
<svg version="1.1" id="Ebene_1" xmlns="http://www.w3.org/2000/svg" xmlns:xlink="http://www.w3.org/1999/xlink" x="0px" y="0px"
	 viewBox="0 0 157 157" style="enable-background:new 0 0 157 157;" xml:space="preserve">
<style type="text/css">
	.st0{fill:#E0FF68;}
	.st1{fill:#082D50;}
</style>
<path class="st0" d="M143.4,43.4c-1.8-6.3-5.4-12-11.2-15.7c-25.5-16.2-61.4-10.1-88.6-7.6c-23.5,2.2-24.4,40.1-7.8,51.4
	C37,82.8,43,94.2,53.3,97.9c4.6,1.6,9.3,3,14.2,3.8c6,1,11.1-0.6,15.2-3.9c5.7-0.2,11.5-0.4,17.2-0.8c12.4-0.7,27.4,0.6,38.5-6.4
	C154.6,80.5,155.5,54.8,143.4,43.4z"/>
<g>
	<polygon class="st1" points="118.5,112.6 118.5,36.5 7.3,36.5 7.3,97 15.1,97 15.1,44.3 110.7,44.3 110.7,104.8 22.9,104.8 
		22.9,112.6 58.8,112.6 58.8,124.4 34.6,124.4 34.6,132 91.2,132 91.2,124.4 66.6,124.4 66.6,112.6 	"/>
	<rect x="7.3" y="104.9" class="st1" width="7.8" height="7.7"/>
	<polygon class="st1" points="42.4,83.4 50.2,83.4 50.2,91.2 58,91.2 58,97.1 65.8,97.1 65.8,91.2 73.6,91.2 73.6,83.4 81.4,83.4 
		81.4,75.6 89.2,75.6 89.2,60 81.4,60 81.4,52.2 65.8,52.2 65.8,60 58,60 58,52.2 42.4,52.2 42.4,60 34.6,60 34.6,75.6 42.4,75.6 	
		"/>
</g>
</svg>
