<?xml version="1.0" encoding="utf-8"?>
<!-- Generator: Adobe Illustrator 27.2.0, SVG Export Plug-In . SVG Version: 6.00 Build 0)  -->
<svg version="1.1" id="Ebene_1" xmlns="http://www.w3.org/2000/svg" xmlns:xlink="http://www.w3.org/1999/xlink" x="0px" y="0px"
	 viewBox="0 0 175 175" style="enable-background:new 0 0 175 175;" xml:space="preserve">
<style type="text/css">
	.st0{fill:#FFFFFF;}
	.st1{fill:#082D50;}
</style>
<circle id="Ellipse_1" class="st0" cx="87.5" cy="87.5" r="87.5"/>
<g id="Gruppe_803" transform="translate(19 102)">
	<g>
		<g id="Gruppe_32" transform="translate(0 -76)">
			<g id="Gruppe_28" transform="translate(21.926)">
				<path id="Pfad_22" class="st1" d="M45.7,41.8c5-0.1,8.9-4.2,8.8-9.2c0.1-4.9-3.8-9-8.8-9.2c-4.9,0.1-8.9,4.2-8.8,9.2
					C36.8,37.6,40.8,41.7,45.7,41.8"/>
			</g>
			<g id="Gruppe_29" transform="translate(5.772)">
				<path id="Pfad_23" class="st1" d="M31.1,41.8c5-0.1,8.9-4.2,8.8-9.2c0.1-4.9-3.8-9-8.8-9.2c-4.9,0.1-8.9,4.2-8.8,9.2
					C22.3,37.6,26.2,41.7,31.1,41.8"/>
			</g>
			<g id="Gruppe_30" transform="translate(0 12.03)">
				<path id="Pfad_24" class="st1" d="M98.3,34.3c-6,0-11.7,2.9-15.4,7.7c-3.6-4.8-9.3-7.6-15.4-7.7c-6,0-11.7,2.9-15.4,7.7
					c-3.6-4.8-9.3-7.6-15.4-7.7c-11.1,0.3-20,9.5-19.7,20.6v6.9h8.8v-6.9c-0.1-6.2,4.8-11.3,11-11.4c6.2,0.1,11.1,5.3,11,11.4v20.6
					h8.8V54.9c-0.1-6.2,4.8-11.3,11-11.4c6.2,0.1,11.1,5.3,11,11.4v20.6h8.8V54.9c-0.1-6.2,4.8-11.3,11-11.4
					c6.2,0.1,11.1,5.3,11,11.4v6.9h8.8v-6.9C118.3,43.8,109.5,34.6,98.3,34.3"/>
			</g>
			<g id="Gruppe_31" transform="translate(38.08)">
				<path id="Pfad_25" class="st1" d="M60.3,41.8c5-0.1,8.9-4.2,8.8-9.2c0.1-4.9-3.8-9-8.8-9.2c-4.9,0.1-8.9,4.2-8.8,9.2
					C51.4,37.6,55.3,41.7,60.3,41.8"/>
			</g>
		</g>
	</g>
	<path id="Pfad_27" class="st1" d="M17.2,11.5H26V2.4h-8.8V11.5z"/>
	<path id="Pfad_28" class="st1" d="M109.3,11.5h8.8V2.4h-8.8V11.5z"/>
</g>
</svg>
