<?xml version="1.0" encoding="UTF-8" standalone="no"?>
<svg
  width="80"
  height="80"
  viewBox="0 -80 80 80"
  version="1.1"
  xmlns="http://www.w3.org/2000/svg"
  xmlns:svg="http://www.w3.org/2000/svg">
  <defs>
    <clipPath
      clipPathUnits="userSpaceOnUse"
      id="inverseIN">
      <path
        d="M-3.7-81.4H80.7V3.4H-3.7Zm31.5 67.6V-47.5H16.6v33.8zm-5.6-38.4c3.9 0 6.4-2.6 6.4-5.8-.1-3.3-2.4-5.8-6.3-5.8-3.8 0-6.4 2.5-6.4 5.8 0 3.2 2.4 5.8 6.2 5.8h.1zm7.8 38.4h11.2v-18.9c0-1 .1-2 .4-2.7.8-2 2.7-4.1 5.8-4.1 4.1 0 5.7 3.1 5.7 7.6v18.1h11.2v-19.4c0-10.4-5.5-15.2-12.9-15.2-6.1 0-8.7 3.4-10.2 5.7h.1v-4.9H30.1c.1 3.2 0 33.8 0 33.8z" />
    </clipPath>
  </defs>
  <path
    d="m1.3-71c0-3 2.5-5.4 5.5-5.4h63.4c3 0 5.5 2.4 5.5 5.4v64.1c0 3-2.5 5.4-5.5 5.4H6.8c-3 0-5.5-2.4-5.5-5.4z"
    fill="#006699"
    clip-path="url(#inverseIN)" />
</svg>