<?xml version="1.0" encoding="utf-8"?>
<!-- Generator: Adobe Illustrator 26.2.1, SVG Export Plug-In . SVG Version: 6.00 Build 0)  -->
<svg version="1.1" id="Ebene_1" xmlns="http://www.w3.org/2000/svg" xmlns:xlink="http://www.w3.org/1999/xlink" x="0px" y="0px"
	 viewBox="0 0 175 175" style="enable-background:new 0 0 175 175;" xml:space="preserve">
<style type="text/css">
	.st0{fill:#E0FF68;}
	.st1{fill:#082D50;}
</style>
<circle id="Ellipse_1" class="st0" cx="87.5" cy="87.5" r="87.5"/>
<g id="Gruppe_15" transform="translate(45 124.541)">
	<g>
		<g id="Gruppe_14" transform="translate(0 -66.541)">
			<g id="Gruppe_13" transform="translate(0 0)">
				<path id="Pfad_15" class="st1" d="M60.4-1c-6.7,0-13.2,2.7-17.9,7.5C37.8,1.7,31.3-1,24.6-1C11-1.1-0.1,9.8-0.2,23.4v11.3h13.8
					V23.4c0.1-6,5-10.9,11-10.8c6,0,11,4.8,11,10.8V57h13.8V23.4c0.1-6,5-10.9,11-10.8c6,0,11,4.8,11,10.8V57h13.8V23.4
					C85.1,9.8,74-1.1,60.4-1"/>
			</g>
		</g>
	</g>
	<path id="Pfad_17" class="st1" d="M-0.2-9.5h13.8v-13.6H-0.2V-9.5z"/>
</g>
</svg>
